<svg version="1" xmlns="http://www.w3.org/2000/svg" width="20.592" height="13.079" viewBox="-5.554 0 20.592 13.079"><path d="M-3.847 6.24C-3.794 3.147-.95.44 2.14.543c1.483-.068 2.876.576 4.01 1.483-.483.55-.985 1.08-1.522 1.576-1.366-.943-3.305-1.213-4.67-.124-1.952 1.35-2.04 4.536-.16 5.99 1.825 1.655 5.272.835 5.78-1.704-1.144-.018-2.29 0-3.434-.035-.004-.683-.006-1.365-.004-2.047 1.912-.006 3.823-.01 5.736.005.12 1.605-.095 3.312-1.082 4.638-1.49 2.1-4.49 2.713-6.83 1.814-2.345-.89-4.008-3.37-3.81-5.9M11.61 3.96h1.704l.01 1.715c.57.005 1.144.005 1.714.01V7.39l-1.714.015c-.006.576-.01 1.143-.013 1.715h-1.705c-.008-.572-.008-1.14-.015-1.713-.57-.004-1.145-.012-1.714-.018V5.684c.57-.005 1.157-.008 1.73-.012.008-.572-.003-1.143.003-1.713"/></svg>