<svg version="1" xmlns="http://www.w3.org/2000/svg" width="14.996" height="12.34" viewBox="0 0 14.996 12.34"><path d="M14.637 1.687a5.858 5.858 0 0 1-1.684.466 2.967 2.967 0 0 0 1.29-1.64 5.92 5.92 0 0 1-1.86.72 2.92 2.92 0 0 0-2.14-.938c-1.616 0-2.927 1.33-2.927 2.97 0 .23.023.456.075.674A8.285 8.285 0 0 1 1.355.84c-.252.438-.4.946-.4 1.49 0 1.03.52 1.94 1.306 2.47-.48-.016-.93-.15-1.327-.372v.037c0 1.44 1.01 2.64 2.35 2.908a2.818 2.818 0 0 1-1.323.05 2.94 2.94 0 0 0 2.737 2.063A5.846 5.846 0 0 1 .36 10.712a8.19 8.19 0 0 0 4.49 1.334c5.386 0 8.334-4.52 8.334-8.44 0-.13-.004-.255-.01-.384.574-.42 1.07-.94 1.463-1.535z"/></svg>