<?xml version="1.0" encoding="utf-8"?>
<!-- Generator: Adobe Illustrator 16.0.0, SVG Export Plug-In . SVG Version: 6.00 Build 0)  -->
<!DOCTYPE svg PUBLIC "-//W3C//DTD SVG 1.1//EN" "http://www.w3.org/Graphics/SVG/1.1/DTD/svg11.dtd">
<svg version="1.1" id="Layer_1" xmlns="http://www.w3.org/2000/svg" xmlns:xlink="http://www.w3.org/1999/xlink" x="0px" y="0px"
	 width="200px" height="80px" viewBox="0 0 200 80" enable-background="new 0 0 200 80" xml:space="preserve">
<path id="Elsevier" fill="#FFFFFF" d="M62.641,29.013c-4.453,0-8.095,3.059-8.095,7.999c0,3.852,3.074,5.865,7.81,9.276
	c3.674,2.637,6.051,4.657,6.051,7.033c0,2.929-2.402,4.878-5.274,4.878c-4.391,0-6.966-4.075-8.588-7.806h-0.79l1.559,9.089h0.791
	c0.076-0.643,0.586-0.982,1.063-0.982c0.772,0,3.841,1.259,6.754,1.259c4.842,0,8.585-3.615,8.585-8.294
	c0-4.177-3.495-6.81-7.123-8.985c-4.442-2.669-7.229-4.458-7.229-7.216c0-2.643,1.987-4.59,4.485-4.59
	c4.094,0,6.589,3.645,7.711,7.412h0.782l-0.875-8.797h-0.881c0.109,0.684,0,1.088-0.69,1.088
	C66.956,30.376,65.827,29.013,62.641,29.013 M0.546,29.696v0.875c3.23,0,4.38,0.697,4.38,4.191v19.243
	c0,3.495-1.15,4.194-4.38,4.194v0.868h24.79l2.243-7.205l-0.78-0.297c-1.056,3.354-3.303,5.665-6.926,5.665h-8.587
	c-1.851,0-1.954-0.834-1.954-3.521v-9.291h8.488c2.746,0,3.666,1.318,3.917,4.107h0.78v-9.856h-0.78
	c-0.299,2.855-1.118,4.018-3.917,4.018H9.333V34.48c0-2.479-0.067-2.943,1.752-2.943h7.708c3.355,0,5.047,1.02,5.49,4.591h0.85
	l-0.376-6.432H0.546z M27.299,29.696v0.875c2.99,0.168,4.092,0.724,4.092,4.092v19.444c0,3.364-1.102,3.922-4.092,4.092v0.868
	h23.229l2.437-7.502l-0.962-0.197c-1.706,4.03-3.67,5.862-8.006,5.862H38.23c-2.382,0-2.441-1.332-2.441-3.708v-18.76
	c0-3.496,1.072-4.191,4.304-4.191v-0.875H27.299z M72.712,29.696v0.875c3.214,0,4.277,0.697,4.277,4.191v19.243
	c0,3.495-1.063,4.194-4.277,4.194v0.868h24.785l2.169-7.205l-0.789-0.297c-1.05,3.354-3.297,5.665-6.937,5.665h-8.497
	c-1.854,0-2.037-0.834-2.037-3.521v-9.291h8.475c2.749,0,3.668,1.318,3.909,4.107h0.877v-9.856h-0.877
	c-0.277,2.855-1.121,4.018-3.909,4.018h-8.475V34.48c0-2.479,0.028-2.943,1.837-2.943h7.619c3.351,0,5.134,1.02,5.566,4.591h0.787
	l-0.393-6.432H72.712z M97.409,29.696v0.875c1.375,0,2.635,0.748,3.32,1.953c1.615,2.833,2.814,5.813,4.102,8.786l7.825,18.06h0.575
	l9.373-21.482c0.718-1.701,2.277-6.133,3.817-6.938c0.475-0.254,0.975-0.292,1.461-0.378v-0.875h-8.606v0.875
	c2.114,0.124,3.139,0.664,3.139,1.56c0,0.887-0.247,1.967-1.077,3.917l-7.031,16.301l-5.874-13.875
	c-1.121-2.679-2.438-5.674-2.438-6.24c0-1.642,2.297-1.663,3.43-1.663v-0.875H97.409z M128.165,29.696v0.875
	c3.226,0,4.392,0.697,4.392,4.191v19.243c0,3.495-1.166,4.194-4.392,4.194v0.868h13.095v-0.868c-3.237,0-4.397-0.699-4.397-4.194
	V34.762c0-3.496,1.16-4.191,4.397-4.191v-0.875H128.165z M143.016,29.696v0.875c3.237,0,4.388,0.697,4.388,4.191v19.243
	c0,3.495-1.15,4.194-4.388,4.194v0.868h24.801l2.235-7.205l-0.774-0.297c-1.054,3.354-3.296,5.665-6.929,5.665h-8.582
	c-1.868,0-1.969-0.834-1.969-3.521v-9.291h8.499c2.758,0,3.661,1.318,3.904,4.107h0.886v-9.856h-0.886
	c-0.293,2.855-1.115,4.018-3.904,4.018h-8.499V34.48c0-2.479-0.062-2.943,1.757-2.943h7.721c3.347,0,5.121,1.02,5.572,4.591h0.755
	l-0.375-6.432H143.016z M169.955,29.696v0.875c3.235,0,4.409,0.697,4.409,4.191v19.243c0,3.495-1.174,4.194-4.409,4.194v0.868
	h13.093v-0.868c-3.226,0-4.297-0.699-4.297-4.194v-8.011h3.615l10.547,13.073h6.541v-0.868c-1.801-0.51-2.436-0.979-3.521-2.344
	l-8.877-10.931c4.368-0.945,7.418-3.179,7.418-8.016c0-6.86-6.177-7.213-11.217-7.213H169.955z M181.872,31.252
	c4.009,0,7.632,1.451,7.632,6.252c0,5.194-4.161,6.639-8.504,6.639h-2.249V33.4C178.751,31.407,179.222,31.252,181.872,31.252"/>
</svg>
