<?xml version="1.0" encoding="utf-8"?>
<!-- Generator: Adobe Illustrator 16.0.0, SVG Export Plug-In . SVG Version: 6.00 Build 0)  -->
<!DOCTYPE svg PUBLIC "-//W3C//DTD SVG 1.1//EN" "http://www.w3.org/Graphics/SVG/1.1/DTD/svg11.dtd">
<svg version="1.1" id="Layer_1" xmlns="http://www.w3.org/2000/svg" xmlns:xlink="http://www.w3.org/1999/xlink" x="0px" y="0px"
	 width="200px" height="80px" viewBox="0 0 200 80" enable-background="new 0 0 200 80" xml:space="preserve">
<g id="Awards_1_">
	<g>
		<path fill="#FFFFFF" d="M32.66,13.775c0.27,0.035,0.54,0.081,0.812,0.104c2.68,0.232,5.247,0.901,7.695,2.018
			c2.22,1.012,4.25,2.306,6.009,4.004c0.071,0.067,0.136,0.135,0.203,0.208c0.018,0.02,0.027,0.047,0.057,0.099
			c-1.481,1.535-2.966,3.071-4.44,4.598c-0.574-0.467-1.104-0.94-1.676-1.356c-2.333-1.696-4.929-2.773-7.801-3.102
			c-5.17-0.592-9.73,0.816-13.586,4.33c-2.705,2.464-4.35,5.548-5.088,9.123c-0.302,1.458-0.432,2.932-0.333,4.409
			c0.437,6.451,3.445,11.278,9.163,14.343c2.116,1.133,4.405,1.717,6.808,1.827c3.659,0.17,7.104-0.56,10.22-2.541
			c3.149-2.003,5.026-4.888,5.737-8.54c0.095-0.489,0.151-0.986,0.222-1.481c0.007-0.053,0.001-0.11,0.001-0.199
			c-5.094,0-10.173,0-15.27,0c0-2.143,0-4.251,0-6.394c0.1-0.006,0.202-0.015,0.303-0.015c6.996,0,13.99,0,20.985-0.006
			c0.219,0,0.315,0.046,0.356,0.284c0.301,1.758,0.37,3.526,0.284,5.305c-0.098,1.969-0.413,3.896-1.015,5.763
			c-1.629,5.06-4.74,8.919-9.396,11.508c-2.393,1.331-4.965,2.125-7.664,2.521c-1.639,0.241-3.288,0.313-4.941,0.227
			c-5.853-0.305-10.982-2.379-15.279-6.397c-3.673-3.438-6.032-7.641-7.083-12.561c-0.212-0.992-0.288-2.011-0.428-3.018
			c-0.007-0.051-0.036-0.102-0.053-0.152c0-0.941,0-1.883,0-2.825c0.017-0.051,0.047-0.1,0.051-0.152
			c0.129-1.845,0.467-3.653,1.067-5.4C10.79,23.889,14.933,19.148,21,16.113c2.344-1.172,4.834-1.884,7.44-2.176
			c0.522-0.058,1.043-0.108,1.564-0.162C30.892,13.775,31.776,13.775,32.66,13.775z"/>
		<path fill="#FFFFFF" d="M135.401,74.431c-0.444-0.056-0.89-0.105-1.333-0.166c-2.704-0.377-5.096-1.451-7.161-3.236
			c-1.732-1.503-3.027-3.33-4.023-5.385c-0.017-0.034-0.026-0.07-0.051-0.128c1.933-0.809,3.857-1.61,5.805-2.428
			c0.06,0.122,0.104,0.212,0.146,0.303c1.032,2.133,2.527,3.811,4.81,4.587c2.74,0.93,5.387,0.665,7.782-1.045
			c1.524-1.085,2.358-2.656,2.719-4.465c0.154-0.777,0.202-1.58,0.238-2.371c0.036-0.946,0.007-1.897,0.007-2.799
			c-0.247,0.223-0.525,0.453-0.78,0.707c-1.584,1.564-3.486,2.446-5.686,2.709c-4.379,0.523-8.14-0.864-11.357-3.789
			c-2.555-2.322-4.112-5.227-4.638-8.629c-0.766-4.937,0.525-9.309,3.875-13.027c2.204-2.449,4.95-3.993,8.212-4.52
			c3.027-0.489,5.915-0.105,8.505,1.667c0.656,0.449,1.239,0.996,1.853,1.493c0-0.765,0-1.582,0-2.417c2.129,0,4.227,0,6.365,0
			c0,0.101,0,0.204,0,0.305c0,9.156,0.013,18.312-0.008,27.471c-0.008,2.742-0.497,5.405-1.712,7.889
			c-1.805,3.691-4.758,5.948-8.739,6.856c-0.83,0.19-1.687,0.247-2.53,0.369c-0.074,0.01-0.145,0.026-0.219,0.042
			C136.783,74.431,136.094,74.431,135.401,74.431z M144.862,45.567c-0.014-0.19-0.029-0.542-0.06-0.896
			c-0.173-2.035-0.847-3.882-2.214-5.421c-1.8-2.021-4.052-3.013-6.774-2.679c-2.476,0.304-4.456,1.528-5.844,3.599
			c-1.757,2.627-2.069,5.517-1.237,8.516c1.145,4.114,4.938,6.572,8.779,6.143c2.229-0.25,4.038-1.283,5.419-3.043
			C144.321,50.016,144.837,47.947,144.862,45.567z"/>
		<path fill="#FFFFFF" d="M192.538,41.912c-0.55,0.215-1.104,0.419-1.65,0.646c-6.112,2.532-12.224,5.068-18.336,7.604
			c-0.086,0.038-0.171,0.08-0.283,0.131c0.38,0.737,0.828,1.411,1.364,2.022c1.393,1.588,3.169,2.368,5.25,2.514
			c1.858,0.133,3.609-0.182,5.221-1.152c1.139-0.686,2.041-1.614,2.791-2.705c0.06-0.086,0.12-0.172,0.19-0.274
			c1.748,1.161,3.484,2.315,5.238,3.48c-1.055,1.412-2.243,2.658-3.635,3.701c-2.365,1.762-5.021,2.727-7.961,2.903
			c-3.922,0.236-7.468-0.786-10.552-3.248c-2.658-2.121-4.305-4.896-5.002-8.21c-0.768-3.648-0.507-7.231,1.081-10.635
			c1.935-4.142,5.126-6.875,9.613-7.812c5.711-1.195,10.335,0.708,13.857,5.338c1.021,1.342,1.655,2.886,2.301,4.428
			c0.159,0.385,0.342,0.766,0.51,1.15C192.538,41.834,192.538,41.872,192.538,41.912z M184.77,39.574
			c-0.16-0.26-0.293-0.505-0.453-0.729c-1.41-1.972-4.092-2.936-6.61-2.314c-2.748,0.677-4.667,2.392-5.872,4.923
			c-0.563,1.181-0.792,2.432-0.615,3.783C175.743,43.348,180.24,41.467,184.77,39.574z"/>
		<path fill="#FFFFFF" d="M118.93,45.714c-0.002,3.394-0.938,6.493-2.999,9.208c-2.317,3.047-5.394,4.91-9.15,5.611
			c-3.408,0.64-6.71,0.263-9.841-1.249c-3.683-1.774-6.166-4.651-7.536-8.484c-0.821-2.294-1.065-4.665-0.766-7.085
			c0.441-3.562,1.953-6.596,4.552-9.065c2.308-2.195,5.064-3.496,8.216-3.929c4.206-0.579,8.075,0.309,11.54,2.775
			c3.094,2.202,4.968,5.226,5.668,8.958c0.2,1.069,0.265,2.162,0.395,3.248C118.98,45.707,118.954,45.709,118.93,45.714z
			 M112.304,45.707c0.002-0.958-0.116-1.896-0.367-2.818c-1.114-4.093-4.823-6.686-8.777-6.354
			c-2.797,0.238-4.982,1.531-6.494,3.879c-1.519,2.364-1.823,4.958-1.204,7.659c0.856,3.73,3.76,6.308,7.267,6.71
			c2.618,0.307,4.902-0.455,6.799-2.27C111.46,50.669,112.275,48.338,112.304,45.707z"/>
		<path fill="#FFFFFF" d="M70.725,60.862c-1.967-0.061-3.874-0.363-5.711-1.068c-1.424-0.548-2.734-1.283-3.927-2.235
			c-1.479-1.178-2.687-2.585-3.629-4.225c-0.706-1.228-1.244-2.534-1.546-3.92c-0.189-0.878-0.322-1.772-0.414-2.666
			c-0.073-0.698-0.119-1.418-0.052-2.117c0.534-5.556,3.154-9.757,8.12-12.42c1.719-0.919,3.568-1.393,5.492-1.586
			c1.775-0.179,3.531-0.037,5.273,0.375c2.283,0.539,4.341,1.518,6.167,2.978c1.48,1.183,2.67,2.613,3.561,4.294
			c0.826,1.555,1.347,3.201,1.596,4.943c0.168,1.173,0.229,2.345,0.156,3.519c-0.102,1.657-0.451,3.26-1.066,4.808
			c-0.587,1.478-1.394,2.82-2.421,4.029c-1.197,1.405-2.612,2.542-4.244,3.414c-1.549,0.83-3.187,1.382-4.917,1.645
			C72.357,60.754,71.538,60.788,70.725,60.862z M79.219,45.12c-0.044-0.391-0.077-0.778-0.14-1.159
			c-0.139-0.855-0.373-1.682-0.74-2.472c-0.507-1.083-1.184-2.029-2.075-2.834c-0.67-0.604-1.406-1.094-2.22-1.449
			c-1.466-0.641-3.001-0.839-4.592-0.61c-1.875,0.273-3.494,1.067-4.792,2.444c-2.11,2.24-2.84,4.935-2.483,7.954
			c0.145,1.218,0.501,2.37,1.094,3.448c0.842,1.534,2.022,2.726,3.583,3.513c1.589,0.8,3.274,1.095,5.053,0.822
			c3.783-0.571,6.782-3.693,7.232-7.791C79.205,46.367,79.193,45.741,79.219,45.12z"/>
		<path fill="#FFFFFF" d="M155.132,15.343c2.215,0,4.412,0,6.626,0c0,14.857,0,29.705,0,44.567c-2.214,0-4.411,0-6.626,0
			C155.132,45.065,155.132,30.212,155.132,15.343z"/>
	</g>
</g>
</svg>
