<?xml version="1.0" encoding="utf-8"?>
<!-- Generator: Adobe Illustrator 16.0.4, SVG Export Plug-In . SVG Version: 6.00 Build 0)  -->
<!DOCTYPE svg PUBLIC "-//W3C//DTD SVG 1.1//EN" "http://www.w3.org/Graphics/SVG/1.1/DTD/svg11.dtd">
<svg version="1.1" id="Layer_1" xmlns="http://www.w3.org/2000/svg" xmlns:xlink="http://www.w3.org/1999/xlink" x="0px" y="0px"
	 width="200px" height="92px" viewBox="0 -1 200 92" enable-background="new 0 -1 200 92" xml:space="preserve">
<g id="Clients">
	<path id="Here" fill="#FFFFFF" d="M86.164,87.997c-5.172,0-10.064,0.017-14.965-0.029c-0.364,0-0.798-0.26-1.071-0.53
		C61.729,79.192,53.341,70.887,45,62.645c2.723-2.727,5.255-5.226,7.901-7.835c4.122,4.208,8.365,8.536,12.587,12.866
		c0.126-0.031,0.268-0.075,0.394-0.102c-0.144-5.363,2.654-8.983,7.089-11.172c4.971-2.45,8.829,0.389,12.508,3.532
		c-4.245-7.006-3.755-13.476,2.075-19.289c5.833-5.819,12.161-6.161,18.9-1.545c-2.696-2.623-5.395-5.252-8.062-7.851
		c2.477-2.478,4.729-4.735,7.041-7.033c0.949,0.798,1.995,1.665,3.264,2.729c-0.54-5.006,0.837-8.965,5.098-11.742
		c1.624,1.903,3.236,3.801,4.974,5.832c-0.293-1.631-0.675-3.057-0.76-4.499c-0.292-5.778,2.606-9.912,7.105-13.083
		c4.829-3.394,10.301-3.287,15.484,0.429c2.25,1.595,4.254,3.557,6.386,5.375c-4.773,4.83-9.387,9.49-14.021,14.155
		c1.506,1.601,4.035,1.872,6.372,0.65c2.476-1.269,4.236-3.323,5.785-5.543c0.833-1.167,1.552-2.424,2.367-3.738
		c2.182,1.189,4.36,2.392,6.718,3.695c-0.612,1.231-1.12,2.477-1.827,3.616c-2.354,3.82-5.268,7.187-9.164,9.512
		c-5.602,3.327-12.021,2.756-17.241-1.419c-2.315-1.876-4.407-3.97-5.852-6.611c-0.119-0.231-0.317-0.416-0.647-0.827
		c-1.145,1.104-2.336,2.047-3.238,3.233c-1.424,1.895-1.089,4.037,0.044,5.904c1.123,1.866,2.48,3.643,3.953,5.248
		c2.684,2.889,5.572,5.611,8.326,8.348c-2.626,2.596-5.209,5.149-7.839,7.725c-2.808-2.851-5.723-5.847-8.595-8.759
		c-4.771,4.775-9.409,9.405-14.089,14.089c1.633,1.304,3.487,1.565,5.488,0.848c2.454-0.897,4.222-2.642,5.749-4.665
		c0.898-1.173,1.703-2.415,2.613-3.707c2.203,1.232,4.404,2.466,6.81,3.817c-0.662,1.139-1.216,2.295-1.94,3.335
		c-2.312,3.349-4.986,6.342-8.526,8.406c-5.457,3.197-10.838,2.963-16.144-0.365c-0.234-0.136-0.482-0.272-0.837-0.277
		c2.859,2.803,5.729,5.608,8.56,8.381c-2.74,2.719-5.321,5.286-7.775,7.697c-4.176-4.088-8.459-8.314-12.787-12.491
		c-0.725-0.684-1.534-1.359-2.43-1.827c-1.318-0.723-2.564-0.338-3.655,0.638c-1.148,1.053-1.952,2.338-1.285,3.847
		c0.589,1.356,1.401,2.719,2.413,3.801c3.642,3.818,7.417,7.526,11.148,11.281C85.624,87.434,85.805,87.611,86.164,87.997z
		 M100.442,46.425c-2.497-2.239-5.591-2.103-7.781,0.4c-1.944,2.191-1.785,5.305,0.334,7.166
		C95.463,51.488,97.933,48.969,100.442,46.425z M135.459,11.519c-1.402-1.171-2.958-1.981-4.854-1.516
		c-2.207,0.54-3.686,2.007-4.203,4.199c-0.438,1.864,0.136,3.562,1.48,4.85C130.414,16.533,132.894,14.074,135.459,11.519z"/>
</g>
</svg>
