<?xml version="1.0" encoding="utf-8"?>
<!-- Generator: Adobe Illustrator 16.0.0, SVG Export Plug-In . SVG Version: 6.00 Build 0)  -->
<!DOCTYPE svg PUBLIC "-//W3C//DTD SVG 1.1//EN" "http://www.w3.org/Graphics/SVG/1.1/DTD/svg11.dtd">
<svg version="1.1" id="Layer_1" xmlns="http://www.w3.org/2000/svg" xmlns:xlink="http://www.w3.org/1999/xlink" x="0px" y="0px"
	 width="200px" height="80px" viewBox="0 0 200 80" enable-background="new 0 0 200 80" xml:space="preserve">
<g>
	<path id="Philips" fill="#FFFFFF" d="M26.241,39.956c0,4.228-2.043,7.09-7.214,7.09h-1.641V33.582
		c0.586-0.033,1.124-0.033,1.641-0.033C23.925,33.548,26.241,35.869,26.241,39.956 M20.931,52.905
		c9.265,0,15.118-4.77,15.118-13.082c0-9.14-6.267-12.408-16.483-12.408c-3.947,0-8.715,0.27-12.119,0.679v32.579h9.94v-7.769
		H20.931z M154.146,39.956c0,4.228-2.045,7.09-7.221,7.09h-1.631V33.582c0.579-0.033,1.12-0.033,1.631-0.033
		C151.83,33.548,154.146,35.869,154.146,39.956 M148.835,52.905c9.256,0,15.118-4.77,15.118-13.082
		c0-9.14-6.268-12.408-16.485-12.408c-3.943,0-8.719,0.27-12.12,0.679v32.579h9.946v-7.769H148.835z M176.891,36.416
		c0-1.774,1.771-2.59,4.628-2.59c3.135,0,6.544,0.68,8.854,1.639l-0.813-7.098c-2.588-0.547-4.905-0.952-9.13-0.952
		c-8.035,0-13.479,3.171-13.479,9.817c0,11.449,15.525,9.129,15.525,14.444c0,2.045-1.493,3.135-5.179,3.135
		c-3.265,0-8.305-1.09-11.304-2.587l1.098,7.5c2.992,1.088,7.079,1.631,10.345,1.631c8.31,0,15.118-2.723,15.118-10.903
		C192.554,39.551,176.891,41.595,176.891,36.416 M127.854,28.096h-9.945v32.582h9.945V28.096z M87.537,28.096h-9.946v32.582h9.946
		V28.096z M104.833,54.135V28.096h-9.942v32.582h17.979l1.498-6.543H104.833L104.833,54.135z M70.234,28.096h-9.943v12.951H49.943
		V28.096h-9.944v32.582h9.944V47.865h10.349v12.812h9.943L70.234,28.096L70.234,28.096z"/>
</g>
</svg>
