<?xml version="1.0" encoding="utf-8"?>
<!-- Generator: Adobe Illustrator 16.0.0, SVG Export Plug-In . SVG Version: 6.00 Build 0)  -->
<!DOCTYPE svg PUBLIC "-//W3C//DTD SVG 1.1//EN" "http://www.w3.org/Graphics/SVG/1.1/DTD/svg11.dtd">
<svg version="1.1" id="Layer_1" xmlns="http://www.w3.org/2000/svg" xmlns:xlink="http://www.w3.org/1999/xlink" x="0px" y="0px"
	 width="200px" height="80px" viewBox="0 0 200 80" enable-background="new 0 0 200 80" xml:space="preserve">
<g id="Wired">
	<g>
		<g>
			<path fill="#FFFFFF" d="M156.217,25.057v38.658h38.307V25.057H156.217z M185.502,54.639c-1.637,2.432-4.801,2.936-7.514,2.992
				c-4.408,0.031-8.809,0.004-13.221,0.016V31.131c4.58,0.014,9.16-0.048,13.736,0.029c2.562,0.093,5.475,0.693,7,2.97
				c1.918,3.068,1.617,6.819,1.959,10.272C187.123,47.846,187.412,51.58,185.502,54.639z M80.788,63.715h37.833V25.057H80.788
				V63.715z M89.333,31.131c5.207,0,10.408-0.008,15.61,0c1.609,0,3.531,0.204,4.564,1.617c1.285,1.703,1.234,3.935,1.254,5.955
				c-0.004,1.743-0.078,3.64-1.201,5.062c-0.775,1.041-2.143,1.092-3.207,1.656c1.428,0.416,3.27,0.787,3.742,2.455
				c0.914,3.176,0.332,6.525,0.805,9.77h-4.99c-0.176-2.869-0.42-5.723-0.553-8.592c0.018-1.137-1.213-1.877-2.248-1.783
				c-2.844-0.016-5.69,0.006-8.532,0v10.375h-5.244V31.131z M5.476,63.715h37.832V25.057H5.476V63.715z M13.436,31.131
				c1.096,7.149,2.299,14.291,3.571,21.414c0.208-0.533,0.401-1.068,0.524-1.627c1.231-6.049,2.557-12.077,3.823-18.122
				c0.152-0.622,0.334-1.56,1.125-1.625c1.396-0.09,2.801-0.088,4.196,0c1.139,0.526,0.999,2.047,1.315,3.084
				c1.363,6.1,2.412,12.288,3.984,18.321c1.396-7.115,2.409-14.305,3.67-21.445c1.584,0,3.169,0.003,4.757-0.008
				c-1.755,8.187-3.305,16.427-4.97,24.64c-0.166,0.648-0.198,1.434-0.845,1.816c-1.797,0.25-3.646,0.23-5.446,0.014
				c-0.632-0.387-0.665-1.182-0.85-1.82c-1.308-6.035-2.473-12.105-3.881-18.121c-0.249,0.463-0.406,0.968-0.498,1.488
				c-1.128,5.607-2.361,11.195-3.501,16.8c-0.167,0.68-0.38,1.748-1.288,1.721c-1.662,0.113-3.354,0.18-5.003-0.088
				c-0.917-0.627-0.729-1.877-1.031-2.816c-1.622-7.875-3.138-15.777-4.827-23.634C9.987,31.134,11.715,31.124,13.436,31.131z"/>
		</g>
	</g>
	<path fill="#FFFFFF" d="M52.908,30.87c6.096-0.016,12.188-0.016,18.278,0c0.021,1.577,0.021,3.161,0.005,4.744
		c-2.157,0.016-4.308,0.008-6.467,0.008c0.016,5.843,0.016,11.685,0,17.531c2.159,0,4.312-0.01,6.473,0.01
		c0.006,1.576,0.011,3.162-0.011,4.742c-6.092,0.01-12.183,0.01-18.275,0c-0.021-1.586-0.021-3.166-0.003-4.75
		c2.157-0.012,4.306-0.002,6.466-0.002c-0.014-5.846-0.014-11.688,0-17.531c-2.16,0-4.309,0.008-6.466-0.008
		C52.889,34.031,52.889,32.456,52.908,30.87"/>
	<path fill="#FFFFFF" d="M125.383,30.872c7.467-0.021,14.934-0.021,22.406,0c0.014,2.936,0,5.87,0.012,8.799h-4.855
		c-0.002-1.353-0.002-2.706,0.004-4.049c-2.918,0.003-5.842,0.003-8.766,0c-0.008,2.028-0.002,4.051-0.002,6.08h7.07v4.51h-7.07
		c0.006,2.32-0.027,4.637,0.025,6.955c2.998-0.033,5.994-0.012,8.996-0.014c-0.006-1.543-0.006-3.084,0-4.623
		c1.643-0.021,3.287-0.021,4.936-0.01c0,3.129,0.021,6.254-0.016,9.375c-7.58,0.025-15.156,0.025-22.74,0
		c-0.021-1.578-0.02-3.156-0.004-4.734c1.199-0.018,2.404-0.018,3.602-0.006c0.023-5.848,0.023-11.689,0-17.541
		c-1.197,0.011-2.402,0.011-3.605-0.014C125.363,34.026,125.363,32.447,125.383,30.872"/>
	<path fill="#FFFFFF" d="M94.578,35.486c3.368,0.048,6.741-0.104,10.096,0.069c1.297,0.919,1.039,2.767,1.086,4.159
		c-0.068,1.266-0.092,3.288-1.775,3.389c-3.127,0.152-6.272,0.018-9.407,0.059V35.486z"/>
	<path fill="#FFFFFF" d="M170.008,35.486c2.846,0.008,5.686-0.021,8.529,0.008c1.27-0.013,2.715,0.606,3.115,1.906
		c0.891,2.544,0.518,5.309,0.615,7.959c-0.074,2.113,0.15,4.352-0.752,6.332c-0.602,1.287-2.166,1.625-3.455,1.602
		c-2.688,0-5.365-0.012-8.053-0.006V35.486z"/>
</g>
</svg>
